<svg xmlns="http://www.w3.org/2000/svg" xmlns:xlink="http://www.w3.org/1999/xlink" width="24" height="24" viewBox="0 0 24 24">
  <defs>
    <clipPath id="clip-path">
      <rect width="24" height="24" fill="none"/>
    </clipPath>
  </defs>
  <g id="icons_dislike" clip-path="url(#clip-path)">
    <rect id="사각형_1961" data-name="사각형 1961" width="24" height="24" fill="none"/>
    <g id="그룹_640" data-name="그룹 640">
      <path id="패스_2078" data-name="패스 2078" d="M6.2,14.1H5.7a2.006,2.006,0,0,1-2-2V7a2.006,2.006,0,0,1,2-2h.4a2.006,2.006,0,0,1,2,2v5.1A1.864,1.864,0,0,1,6.2,14.1Z" fill="none" stroke="#fff" stroke-linecap="round" stroke-linejoin="round" stroke-miterlimit="10" stroke-width="1"/>
      <path id="패스_2079" data-name="패스 2079" d="M16.9,15.5H13a5.586,5.586,0,0,1,1.6,3.2c0,1-1.7,2.8-3.6-.6a23.705,23.705,0,0,0-2.4-3.4,1.922,1.922,0,0,1-.4-1.2V7a2.006,2.006,0,0,1,2-2h6.2a2.162,2.162,0,0,1,2.1,1.5L20,11.1A3.325,3.325,0,0,1,18.7,15,4.075,4.075,0,0,1,16.9,15.5Z" fill="none" stroke="#fff" stroke-linecap="round" stroke-linejoin="round" stroke-miterlimit="10" stroke-width="1"/>
    </g>
  </g>
</svg>
