<svg xmlns="http://www.w3.org/2000/svg" xmlns:xlink="http://www.w3.org/1999/xlink" width="24" height="24" viewBox="0 0 24 24">
  <defs>
    <clipPath id="clip-path">
      <rect width="24" height="24" fill="none"/>
    </clipPath>
  </defs>
  <g id="icons_phonebook" opacity="0.8" clip-path="url(#clip-path)">
    <rect id="사각형_1983" data-name="사각형 1983" width="24" height="24" fill="none"/>
    <g id="그룹_663" data-name="그룹 663">
      <path id="패스_2118" data-name="패스 2118" d="M8,3.8H18.3a2.006,2.006,0,0,1,2,2V18.2a2.006,2.006,0,0,1-2,2H8a2.006,2.006,0,0,1-2-2V5.8A2.006,2.006,0,0,1,8,3.8Z" fill="none" stroke="#000" stroke-miterlimit="10" stroke-width="1"/>
      <path id="패스_2119" data-name="패스 2119" d="M4.2,8.8H6V6.9H4.2a.9.9,0,0,0-.9.9h0A.919.919,0,0,0,4.2,8.8Z" fill="none" stroke="#000" stroke-linecap="round" stroke-miterlimit="10" stroke-width="1"/>
      <path id="패스_2120" data-name="패스 2120" d="M4.2,15.3H6v1.8H4.2a.9.9,0,0,1-.9-.9h0C3.2,15.7,3.7,15.3,4.2,15.3Z" fill="none" stroke="#000" stroke-linecap="round" stroke-miterlimit="10" stroke-width="1"/>
      <path id="패스_2121" data-name="패스 2121" d="M13.7,6a3.117,3.117,0,0,0-2,.6c-1,.7-1.5,1.4-.8,2.7.7,1.2,1.2,1.7,2.7,1.1a9.15,9.15,0,0,1,.1,1.7,9.7,9.7,0,0,1-.1,1.7c-1.5-.6-2-.1-2.7,1.1-.7,1.3-.2,2,.8,2.7a3.817,3.817,0,0,0,2,.6h0c1.7,0,3.1-2.7,3.1-6S15.3,6,13.7,6Z" fill="none" stroke="#000" stroke-linecap="round" stroke-linejoin="round" stroke-miterlimit="10" stroke-width="1"/>
    </g>
  </g>
</svg>
