<svg xmlns="http://www.w3.org/2000/svg" xmlns:xlink="http://www.w3.org/1999/xlink" width="24" height="24" viewBox="0 0 24 24">
  <defs>
    <clipPath id="clip-path">
      <rect width="24" height="24" fill="none"/>
    </clipPath>
  </defs>
  <g id="icons_like" opacity="0.8" clip-path="url(#clip-path)">
    <rect id="사각형_1974" data-name="사각형 1974" width="24" height="24" fill="none"/>
    <g id="그룹_656" data-name="그룹 656">
      <path id="패스_2106" data-name="패스 2106" d="M6.2,19.5H5.7a2.006,2.006,0,0,1-2-2V12.4a2.006,2.006,0,0,1,2-2h.4a2.006,2.006,0,0,1,2,2v5.1A1.864,1.864,0,0,1,6.2,19.5Z" fill="none" stroke="#000" stroke-linecap="round" stroke-linejoin="round" stroke-miterlimit="10" stroke-width="1"/>
      <path id="패스_2107" data-name="패스 2107" d="M16.9,9.1H13a5.586,5.586,0,0,0,1.6-3.2c0-1-1.7-2.8-3.6.6A23.705,23.705,0,0,1,8.6,9.9a1.922,1.922,0,0,0-.4,1.2v6.4a2.006,2.006,0,0,0,2,2h6.2A2.162,2.162,0,0,0,18.5,18L20,13.4a3.325,3.325,0,0,0-1.3-3.9A3.922,3.922,0,0,0,16.9,9.1Z" fill="none" stroke="#000" stroke-linecap="round" stroke-linejoin="round" stroke-miterlimit="10" stroke-width="1"/>
    </g>
  </g>
</svg>
