<svg xmlns="http://www.w3.org/2000/svg" xmlns:xlink="http://www.w3.org/1999/xlink" width="24" height="24" viewBox="0 0 24 24">
  <defs>
    <clipPath id="clip-path">
      <rect width="24" height="24" fill="none"/>
    </clipPath>
  </defs>
  <g id="icons_paper" opacity="0.8" clip-path="url(#clip-path)">
    <rect id="사각형_1982" data-name="사각형 1982" width="24" height="24" fill="none"/>
    <path id="패스_2117" data-name="패스 2117" d="M3.5,5.4V19a1.011,1.011,0,0,0,1.4.9l2.6-1.2a1.387,1.387,0,0,1,.9,0l3.1,1.6a.75.75,0,0,0,.9,0l3-1.6a.956.956,0,0,1,.9,0l2.6,1.2a.986.986,0,0,0,1.4-.9V5.4a2.006,2.006,0,0,0-2-2H5.3A1.977,1.977,0,0,0,3.5,5.4Z" fill="none" stroke="#000" stroke-linecap="round" stroke-linejoin="round" stroke-miterlimit="10" stroke-width="1"/>
    <line id="선_35" data-name="선 35" x2="10" transform="translate(7 7.5)" fill="none" stroke="#000" stroke-linecap="round" stroke-miterlimit="10" stroke-width="1"/>
    <line id="선_36" data-name="선 36" x2="10" transform="translate(7 10.5)" fill="none" stroke="#000" stroke-linecap="round" stroke-miterlimit="10" stroke-width="1"/>
    <line id="선_37" data-name="선 37" x2="10" transform="translate(7 13.5)" fill="none" stroke="#000" stroke-linecap="round" stroke-miterlimit="10" stroke-width="1"/>
  </g>
</svg>
