<svg xmlns="http://www.w3.org/2000/svg" xmlns:xlink="http://www.w3.org/1999/xlink" width="24" height="24" viewBox="0 0 24 24">
  <defs>
    <clipPath id="clip-path">
      <rect width="24" height="24" fill="none"/>
    </clipPath>
  </defs>
  <g id="icons_vote" opacity="0.8" clip-path="url(#clip-path)">
    <rect id="사각형_2001" data-name="사각형 2001" width="24" height="24" fill="none"/>
    <g id="그룹_689" data-name="그룹 689" transform="translate(0 -0.2)">
      <path id="패스_2161" data-name="패스 2161" d="M9.6,7H5A2.006,2.006,0,0,0,3,9v9.8a2.006,2.006,0,0,0,2,2H19a2.006,2.006,0,0,0,2-2V9a2.006,2.006,0,0,0-2-2H16.5" fill="none" stroke="#000" stroke-miterlimit="10" stroke-width="1"/>
      <line id="선_49" data-name="선 49" x1="18" transform="translate(3 12.5)" fill="none" stroke="#000" stroke-miterlimit="10" stroke-width="1"/>
      <path id="패스_2162" data-name="패스 2162" d="M16.5,6.9,13.1,3.5,8.3,8.3l2.2,2.2h2.4Z" fill="none" stroke="#000" stroke-linecap="round" stroke-linejoin="round" stroke-miterlimit="10" stroke-width="1"/>
      <line id="선_50" data-name="선 50" x2="9" transform="translate(7.5 10.5)" fill="none" stroke="#000" stroke-linecap="round" stroke-linejoin="round" stroke-miterlimit="10" stroke-width="1"/>
      <path id="패스_2163" data-name="패스 2163" d="M9.4,16.4l1.7,1.7L14.2,15" fill="none" stroke="#000" stroke-linecap="round" stroke-linejoin="round" stroke-miterlimit="10" stroke-width="1"/>
    </g>
  </g>
</svg>
