<svg id="icons_alarm" xmlns="http://www.w3.org/2000/svg" width="24" height="24" viewBox="0 0 24 24">
  <rect id="사각형_1945" data-name="사각형 1945" width="24" height="24" fill="none"/>
  <line id="선_4" data-name="선 4" x2="15" transform="translate(4 16.5)" fill="none" stroke="#01eefe" stroke-linecap="round" stroke-linejoin="round" stroke-miterlimit="10" stroke-width="1"/>
  <path id="패스_2051" data-name="패스 2051" d="M16.1,14.1c-.4-1.9.2-3.8-1.1-6.1-.8-1.6-2.7-1.8-3.6-1.8A3.941,3.941,0,0,0,7.9,7.9c-1.2,2.3-.6,4.2-1.1,6.1a4.363,4.363,0,0,1-1.5,2.4H17.5A4.859,4.859,0,0,1,16.1,14.1Z" fill="none" stroke="#01eefe" stroke-linecap="round" stroke-linejoin="round" stroke-miterlimit="10" stroke-width="1"/>
  <path id="패스_2052" data-name="패스 2052" d="M13.9,16.8a2.4,2.4,0,1,1-4.8,0" fill="none" stroke="#01eefe" stroke-linecap="round" stroke-linejoin="round" stroke-miterlimit="10" stroke-width="1"/>
  <circle id="타원_9" data-name="타원 9" cx="1.2" cy="1.2" r="1.2" transform="translate(10.3 3.6)" stroke-width="1" stroke="#01eefe" stroke-linecap="round" stroke-linejoin="round" stroke-miterlimit="10" fill="none"/>
</svg>
