<svg xmlns="http://www.w3.org/2000/svg" xmlns:xlink="http://www.w3.org/1999/xlink" width="24" height="24" viewBox="0 0 24 24">
  <defs>
    <clipPath id="clip-path">
      <rect width="24" height="24" fill="none"/>
    </clipPath>
  </defs>
  <g id="icons_alert" opacity="0.8" clip-path="url(#clip-path)">
    <rect id="사각형_1947" data-name="사각형 1947" width="24" height="24" fill="none"/>
    <path id="패스_2055" data-name="패스 2055" d="M18,16.9H6a1.538,1.538,0,0,0-1.5,1.5h0A1.538,1.538,0,0,0,6,19.9H18a1.538,1.538,0,0,0,1.5-1.5h0A1.473,1.473,0,0,0,18,16.9Z" fill="none" stroke="#000" stroke-linecap="round" stroke-linejoin="round" stroke-miterlimit="10" stroke-width="1"/>
    <g id="그룹_632" data-name="그룹 632">
      <path id="패스_2056" data-name="패스 2056" d="M11.8,4.1h.3A5.131,5.131,0,0,0,7,9.5v7.4H17V9.5A5.211,5.211,0,0,0,11.8,4.1Z" fill="none" stroke="#000" stroke-linecap="round" stroke-linejoin="round" stroke-miterlimit="10" stroke-width="1"/>
      <line id="선_5" data-name="선 5" y2="4" transform="translate(9 10.4)" fill="none" stroke="#000" stroke-linecap="round" stroke-linejoin="round" stroke-miterlimit="10" stroke-width="1"/>
    </g>
  </g>
</svg>
